<svg xmlns="http://www.w3.org/2000/svg" width="1096" height="1048" viewBox="0 0 1096 1048"><rect width="1096" height="1048" fill="#0d0d0f" rx="220"/><style>.s0{fill:#ed3649}.s1{fill:#fff}</style><g id="Слой 1"><g id="logo"><path d="M138.7 223.7V436h48.2V223.7zm111 275.1V547H462v-48.2zm275.1 111v212.3H573V609.8zm111 275.1v48.2h212.3v-48.2z" class="s0"/><path fill-rule="evenodd" d="M269 136.8c0 50.3-35.1 92.5-82.1 103.4-7.7 1.8-15.8 2.8-24.1 2.8s-16.4-1-24.1-2.8c-47-11-82.1-53.1-82.1-103.4 0-58.5 47.7-106.1 106.2-106.1S269 78.3 269 136.8m-48.2 0c0-31.9-26-57.9-58-57.9s-57.9 26-57.9 57.9c0 32 25.9 58 57.9 58s58-26 58-58" class="s0"/><path fill-rule="evenodd" d="M655.1 136.8c0 58.6-47.6 106.2-106.2 106.2-58.5 0-106.1-47.6-106.1-106.2 0-58.5 47.6-106.1 106.1-106.1 58.6 0 106.2 47.6 106.2 106.1m-48.3 0c0-31.9-26-57.9-57.9-57.9s-57.9 26-57.9 57.9c0 32 26 58 57.9 58s57.9-26 57.9-58m434.4 0c0 58.6-47.6 106.2-106.2 106.2s-106.2-47.6-106.2-106.2c0-58.5 47.6-106.1 106.2-106.1s106.2 47.6 106.2 106.1m-48.3 0c0-31.9-26-57.9-57.9-57.9s-57.9 26-57.9 57.9c0 32 26 58 57.9 58s57.9-26 57.9-58" class="s1"/><path fill-rule="evenodd" d="M269 522.9c0 8.3-1 16.4-2.8 24.2-11 46.9-53.2 82-103.4 82-58.5 0-106.2-47.6-106.2-106.2 0-50.2 35.1-92.4 82.1-103.3 7.7-1.9 15.8-2.8 24.1-2.8s16.4.9 24.1 2.8c39.2 9.1 70.2 40 79.3 79.2 1.8 7.7 2.8 15.8 2.8 24.1m-48.2 0c0-31.9-26-57.9-58-57.9s-57.9 26-57.9 57.9 25.9 57.9 57.9 57.9 58-26 58-57.9m434.3 0c0 50.3-35.1 92.5-82.1 103.4-7.7 1.8-15.8 2.8-24.1 2.8s-16.4-1-24.1-2.8c-39.2-9.1-70.1-40-79.2-79.2-1.9-7.8-2.8-15.9-2.8-24.2s.9-16.4 2.8-24.1c10.9-47 53.1-82 103.3-82 58.6 0 106.2 47.6 106.2 106.1m-48.3 0c0-31.9-26-57.9-57.9-57.9S491 491 491 522.9s26 57.9 57.9 57.9 57.9-26 57.9-57.9" class="s0"/><path fill-rule="evenodd" d="M1041.2 522.9c0 58.6-47.6 106.2-106.2 106.2s-106.2-47.6-106.2-106.2c0-58.5 47.6-106.1 106.2-106.1s106.2 47.6 106.2 106.1m-48.3 0c0-31.9-26-57.9-57.9-57.9s-57.9 26-57.9 57.9 26 57.9 57.9 57.9 57.9-26 57.9-57.9M269 909c0 58.6-47.7 106.2-106.2 106.2S56.6 967.6 56.6 909s47.7-106.2 106.2-106.2S269 850.4 269 909m-48.2 0c0-31.9-26-57.9-58-57.9s-57.9 26-57.9 57.9 25.9 57.9 57.9 57.9 58-26 58-57.9" class="s1"/><path fill-rule="evenodd" d="M655.1 909c0 8.3-1 16.4-2.8 24.2-11 46.9-53.1 82-103.4 82-58.5 0-106.1-47.6-106.1-106.2 0-50.2 35-92.4 82-103.4 7.7-1.8 15.8-2.8 24.1-2.8s16.4 1 24.1 2.8c39.2 9.2 70.2 40 79.3 79.2 1.8 7.8 2.8 15.9 2.8 24.2m-48.3 0c0-31.9-26-57.9-57.9-57.9S491 877.1 491 909s26 57.9 57.9 57.9 57.9-26 57.9-57.9m434.4 0c0 58.6-47.6 106.2-106.2 106.2-50.2 0-92.4-35.1-103.4-82-1.8-7.8-2.8-15.9-2.8-24.2s1-16.4 2.8-24.2c11-46.9 53.2-82 103.4-82 58.6 0 106.2 47.6 106.2 106.2m-48.3 0c0-31.9-26-57.9-57.9-57.9s-57.9 26-57.9 57.9 26 57.9 57.9 57.9 57.9-26 57.9-57.9" class="s0"/></g></g></svg>